<svg xmlns="http://www.w3.org/2000/svg" x="0px" y="0px" width="100" height="100" viewBox="0,0,300,150">
<defs><linearGradient x1="32" y1="6.667" x2="32" y2="57.872" gradientUnits="userSpaceOnUse" id="color-1_43625_gr1"><stop offset="0" stop-color="#1a6dff"></stop><stop offset="1" stop-color="#c822ff"></stop></linearGradient><linearGradient x1="32" y1="18.167" x2="32" y2="45.679" gradientUnits="userSpaceOnUse" id="color-2_43625_gr2"><stop offset="0" stop-color="#8ab4ff"></stop><stop offset="1" stop-color="#e492ff"></stop></linearGradient><linearGradient x1="46" y1="12.75" x2="46" y2="23.049" gradientUnits="userSpaceOnUse" id="color-3_43625_gr3"><stop offset="0" stop-color="#8ab4ff"></stop><stop offset="1" stop-color="#e492ff"></stop></linearGradient></defs><g fill="none" fill-rule="nonzero" stroke="none" stroke-width="1" stroke-linecap="butt" stroke-linejoin="miter" stroke-miterlimit="10" stroke-dasharray="" stroke-dashoffset="0" font-family="none" font-weight="none" font-size="none" text-anchor="none" style="mix-blend-mode: normal"><g transform="scale(4,4)"><path d="M44,57h-24c-7.168,0 -13,-5.832 -13,-13v-24c0,-7.168 5.832,-13 13,-13h24c7.168,0 13,5.832 13,13v24c0,7.168 -5.832,13 -13,13zM20,9c-6.065,0 -11,4.935 -11,11v24c0,6.065 4.935,11 11,11h24c6.065,0 11,-4.935 11,-11v-24c0,-6.065 -4.935,-11 -11,-11z" fill="url(#color-1_43625_gr1)"></path><path d="M32,45c-7.168,0 -13,-5.832 -13,-13c0,-7.168 5.832,-13 13,-13c7.168,0 13,5.832 13,13c0,7.168 -5.832,13 -13,13zM32,23c-4.962,0 -9,4.038 -9,9c0,4.963 4.038,9 9,9c4.963,0 9,-4.037 9,-9c0,-4.962 -4.037,-9 -9,-9z" fill="url(#color-2_43625_gr2)"></path><path d="M46,15c-1.65685,0 -3,1.34315 -3,3c0,1.65685 1.34315,3 3,3c1.65685,0 3,-1.34315 3,-3c0,-1.65685 -1.34315,-3 -3,-3z" fill="url(#color-3_43625_gr3)"></path></g></g>
</svg>